<mxfile host="app.diagrams.net" agent="Mozilla/5.0 (Windows NT 10.0; Win64; x64) AppleWebKit/537.36 (KHTML, like Gecko) Chrome/128.0.0.0 Safari/537.36" version="24.7.10">
  <diagram name="Page-1" id="b4e6V43u5BQrlvqWJFem">
    <mxGraphModel dx="4885" dy="2765" grid="1" gridSize="10" guides="1" tooltips="1" connect="1" arrows="1" fold="1" page="1" pageScale="1" pageWidth="850" pageHeight="1100" math="0" shadow="0">
      <root>
        <mxCell id="0" />
        <mxCell id="1" parent="0" />
        <mxCell id="85ITMRcIbwLI7j-geZzP-1" value="" style="endArrow=classic;html=1;rounded=0;exitX=0.005;exitY=0.473;exitDx=0;exitDy=0;exitPerimeter=0;" parent="1" source="85ITMRcIbwLI7j-geZzP-8" edge="1">
          <mxGeometry width="50" height="50" relative="1" as="geometry">
            <mxPoint x="370" y="410" as="sourcePoint" />
            <mxPoint x="280" y="410" as="targetPoint" />
          </mxGeometry>
        </mxCell>
        <mxCell id="85ITMRcIbwLI7j-geZzP-2" value="" style="endArrow=classic;html=1;rounded=0;" parent="1" edge="1">
          <mxGeometry width="50" height="50" relative="1" as="geometry">
            <mxPoint x="282.5" y="530" as="sourcePoint" />
            <mxPoint x="372.5" y="530" as="targetPoint" />
          </mxGeometry>
        </mxCell>
        <mxCell id="85ITMRcIbwLI7j-geZzP-4" value="" style="endArrow=classic;html=1;rounded=0;" parent="1" edge="1">
          <mxGeometry width="50" height="50" relative="1" as="geometry">
            <mxPoint x="285" y="599.8" as="sourcePoint" />
            <mxPoint x="375" y="599.8" as="targetPoint" />
          </mxGeometry>
        </mxCell>
        <mxCell id="85ITMRcIbwLI7j-geZzP-5" value="alu_ready_o" style="text;html=1;align=center;verticalAlign=middle;resizable=0;points=[];autosize=1;strokeColor=none;fillColor=none;" parent="1" vertex="1">
          <mxGeometry x="285" y="378" width="90" height="30" as="geometry" />
        </mxCell>
        <mxCell id="85ITMRcIbwLI7j-geZzP-6" value="alu_valid_i" style="text;html=1;align=center;verticalAlign=middle;resizable=0;points=[];autosize=1;strokeColor=none;fillColor=none;" parent="1" vertex="1">
          <mxGeometry x="277.5" y="500" width="90" height="30" as="geometry" />
        </mxCell>
        <mxCell id="85ITMRcIbwLI7j-geZzP-7" value="alu_insn" style="text;html=1;align=center;verticalAlign=middle;resizable=0;points=[];autosize=1;strokeColor=none;fillColor=none;" parent="1" vertex="1">
          <mxGeometry x="280" y="569.8" width="70" height="30" as="geometry" />
        </mxCell>
        <mxCell id="85ITMRcIbwLI7j-geZzP-8" value="==" style="ellipse;whiteSpace=wrap;html=1;aspect=fixed;" parent="1" vertex="1">
          <mxGeometry x="420" y="370" width="80" height="80" as="geometry" />
        </mxCell>
        <mxCell id="85ITMRcIbwLI7j-geZzP-9" value="&lt;div&gt;Token&lt;/div&gt;&lt;div&gt;16b&lt;br&gt;&lt;/div&gt;" style="rounded=0;whiteSpace=wrap;html=1;" parent="1" vertex="1">
          <mxGeometry x="1104" y="289" width="40" height="122" as="geometry" />
        </mxCell>
        <mxCell id="85ITMRcIbwLI7j-geZzP-10" value="" style="triangle;whiteSpace=wrap;html=1;" parent="1" vertex="1">
          <mxGeometry x="1104" y="348.99999999999994" width="7.5" height="10" as="geometry" />
        </mxCell>
        <mxCell id="85ITMRcIbwLI7j-geZzP-12" value="D" style="text;html=1;align=center;verticalAlign=middle;resizable=0;points=[];autosize=1;strokeColor=none;fillColor=none;" parent="1" vertex="1">
          <mxGeometry x="1094" y="289" width="30" height="30" as="geometry" />
        </mxCell>
        <mxCell id="85ITMRcIbwLI7j-geZzP-13" value="Q" style="text;html=1;align=center;verticalAlign=middle;resizable=0;points=[];autosize=1;strokeColor=none;fillColor=none;" parent="1" vertex="1">
          <mxGeometry x="1124" y="289" width="30" height="30" as="geometry" />
        </mxCell>
        <mxCell id="85ITMRcIbwLI7j-geZzP-15" value="" style="shape=or;whiteSpace=wrap;html=1;" parent="1" vertex="1">
          <mxGeometry x="440" y="470" width="60" height="80" as="geometry" />
        </mxCell>
        <mxCell id="85ITMRcIbwLI7j-geZzP-16" value="" style="endArrow=none;html=1;rounded=0;entryX=0;entryY=0.75;entryDx=0;entryDy=0;entryPerimeter=0;" parent="1" target="85ITMRcIbwLI7j-geZzP-15" edge="1">
          <mxGeometry width="50" height="50" relative="1" as="geometry">
            <mxPoint x="370" y="530" as="sourcePoint" />
            <mxPoint x="530" y="500" as="targetPoint" />
          </mxGeometry>
        </mxCell>
        <mxCell id="85ITMRcIbwLI7j-geZzP-17" value="" style="endArrow=none;html=1;rounded=0;entryX=0;entryY=0.25;entryDx=0;entryDy=0;entryPerimeter=0;" parent="1" target="85ITMRcIbwLI7j-geZzP-15" edge="1">
          <mxGeometry width="50" height="50" relative="1" as="geometry">
            <mxPoint x="380" y="490" as="sourcePoint" />
            <mxPoint x="427.5" y="490" as="targetPoint" />
          </mxGeometry>
        </mxCell>
        <mxCell id="85ITMRcIbwLI7j-geZzP-18" value="" style="endArrow=none;html=1;rounded=0;" parent="1" edge="1">
          <mxGeometry width="50" height="50" relative="1" as="geometry">
            <mxPoint x="380" y="490" as="sourcePoint" />
            <mxPoint x="380" y="410" as="targetPoint" />
          </mxGeometry>
        </mxCell>
        <mxCell id="85ITMRcIbwLI7j-geZzP-19" value="" style="shape=trapezoid;perimeter=trapezoidPerimeter;whiteSpace=wrap;html=1;fixedSize=1;direction=south;" parent="1" vertex="1">
          <mxGeometry x="610" y="569.8" width="60" height="120" as="geometry" />
        </mxCell>
        <mxCell id="85ITMRcIbwLI7j-geZzP-20" value="" style="endArrow=none;html=1;rounded=0;" parent="1" edge="1">
          <mxGeometry width="50" height="50" relative="1" as="geometry">
            <mxPoint x="500" y="509.79999999999995" as="sourcePoint" />
            <mxPoint x="650" y="510" as="targetPoint" />
          </mxGeometry>
        </mxCell>
        <mxCell id="85ITMRcIbwLI7j-geZzP-21" value="" style="endArrow=none;html=1;rounded=0;" parent="1" edge="1">
          <mxGeometry width="50" height="50" relative="1" as="geometry">
            <mxPoint x="650" y="580" as="sourcePoint" />
            <mxPoint x="650" y="290" as="targetPoint" />
          </mxGeometry>
        </mxCell>
        <mxCell id="85ITMRcIbwLI7j-geZzP-22" value="" style="endArrow=none;html=1;rounded=0;entryX=0.25;entryY=1;entryDx=0;entryDy=0;" parent="1" target="85ITMRcIbwLI7j-geZzP-19" edge="1">
          <mxGeometry width="50" height="50" relative="1" as="geometry">
            <mxPoint x="375" y="599.8" as="sourcePoint" />
            <mxPoint x="510" y="600" as="targetPoint" />
          </mxGeometry>
        </mxCell>
        <mxCell id="85ITMRcIbwLI7j-geZzP-23" value="" style="endArrow=none;html=1;rounded=0;entryX=0.25;entryY=1;entryDx=0;entryDy=0;" parent="1" edge="1">
          <mxGeometry width="50" height="50" relative="1" as="geometry">
            <mxPoint x="565" y="660" as="sourcePoint" />
            <mxPoint x="610" y="660.2" as="targetPoint" />
          </mxGeometry>
        </mxCell>
        <mxCell id="85ITMRcIbwLI7j-geZzP-28" value="&#39;0" style="text;html=1;align=center;verticalAlign=middle;resizable=0;points=[];autosize=1;strokeColor=none;fillColor=none;" parent="1" vertex="1">
          <mxGeometry x="540" y="638" width="30" height="30" as="geometry" />
        </mxCell>
        <mxCell id="85ITMRcIbwLI7j-geZzP-29" value="" style="endArrow=none;html=1;rounded=0;exitX=0.097;exitY=0.43;exitDx=0;exitDy=0;exitPerimeter=0;" parent="1" edge="1">
          <mxGeometry width="50" height="50" relative="1" as="geometry">
            <mxPoint x="530" y="601" as="sourcePoint" />
            <mxPoint x="530" y="430" as="targetPoint" />
          </mxGeometry>
        </mxCell>
        <mxCell id="85ITMRcIbwLI7j-geZzP-30" value="" style="endArrow=none;html=1;rounded=0;" parent="1" edge="1">
          <mxGeometry width="50" height="50" relative="1" as="geometry">
            <mxPoint x="490" y="429.99999999999994" as="sourcePoint" />
            <mxPoint x="530" y="430" as="targetPoint" />
          </mxGeometry>
        </mxCell>
        <mxCell id="85ITMRcIbwLI7j-geZzP-31" value="" style="endArrow=none;html=1;rounded=0;" parent="1" edge="1">
          <mxGeometry width="50" height="50" relative="1" as="geometry">
            <mxPoint x="515" y="590" as="sourcePoint" />
            <mxPoint x="545" y="560" as="targetPoint" />
          </mxGeometry>
        </mxCell>
        <mxCell id="85ITMRcIbwLI7j-geZzP-32" value=".token" style="text;html=1;align=center;verticalAlign=middle;resizable=0;points=[];autosize=1;strokeColor=none;fillColor=none;" parent="1" vertex="1">
          <mxGeometry x="520" y="470" width="60" height="30" as="geometry" />
        </mxCell>
        <mxCell id="85ITMRcIbwLI7j-geZzP-33" value="" style="endArrow=none;html=1;rounded=0;" parent="1" edge="1">
          <mxGeometry width="50" height="50" relative="1" as="geometry">
            <mxPoint x="495" y="389.99999999999994" as="sourcePoint" />
            <mxPoint x="700" y="390" as="targetPoint" />
          </mxGeometry>
        </mxCell>
        <mxCell id="85ITMRcIbwLI7j-geZzP-34" value="" style="endArrow=none;html=1;rounded=0;" parent="1" edge="1">
          <mxGeometry width="50" height="50" relative="1" as="geometry">
            <mxPoint x="530" y="540" as="sourcePoint" />
            <mxPoint x="600" y="540" as="targetPoint" />
          </mxGeometry>
        </mxCell>
        <mxCell id="85ITMRcIbwLI7j-geZzP-36" value="" style="endArrow=none;html=1;rounded=0;exitX=0.097;exitY=0.43;exitDx=0;exitDy=0;exitPerimeter=0;" parent="1" edge="1">
          <mxGeometry width="50" height="50" relative="1" as="geometry">
            <mxPoint x="600" y="541" as="sourcePoint" />
            <mxPoint x="600" y="330" as="targetPoint" />
          </mxGeometry>
        </mxCell>
        <mxCell id="85ITMRcIbwLI7j-geZzP-37" value=".trap" style="text;html=1;align=center;verticalAlign=middle;resizable=0;points=[];autosize=1;strokeColor=none;fillColor=none;" parent="1" vertex="1">
          <mxGeometry x="590" y="470" width="50" height="30" as="geometry" />
        </mxCell>
        <mxCell id="85ITMRcIbwLI7j-geZzP-38" value="" style="shape=or;whiteSpace=wrap;html=1;direction=west;" parent="1" vertex="1">
          <mxGeometry x="420" y="270" width="60" height="80" as="geometry" />
        </mxCell>
        <mxCell id="85ITMRcIbwLI7j-geZzP-39" value="alu_commit_o" style="text;html=1;align=center;verticalAlign=middle;resizable=0;points=[];autosize=1;strokeColor=none;fillColor=none;" parent="1" vertex="1">
          <mxGeometry x="280" y="280" width="100" height="30" as="geometry" />
        </mxCell>
        <mxCell id="85ITMRcIbwLI7j-geZzP-40" value="" style="endArrow=classic;html=1;rounded=0;entryX=0.02;entryY=1.062;entryDx=0;entryDy=0;entryPerimeter=0;" parent="1" target="85ITMRcIbwLI7j-geZzP-39" edge="1">
          <mxGeometry width="50" height="50" relative="1" as="geometry">
            <mxPoint x="420" y="310" as="sourcePoint" />
            <mxPoint x="290" y="311" as="targetPoint" />
          </mxGeometry>
        </mxCell>
        <mxCell id="85ITMRcIbwLI7j-geZzP-42" value="" style="endArrow=none;html=1;rounded=0;" parent="1" edge="1">
          <mxGeometry width="50" height="50" relative="1" as="geometry">
            <mxPoint x="480" y="330" as="sourcePoint" />
            <mxPoint x="600" y="330" as="targetPoint" />
          </mxGeometry>
        </mxCell>
        <mxCell id="85ITMRcIbwLI7j-geZzP-43" value="" style="endArrow=none;html=1;rounded=0;entryX=0.164;entryY=0.205;entryDx=0;entryDy=0;entryPerimeter=0;" parent="1" target="85ITMRcIbwLI7j-geZzP-147" edge="1">
          <mxGeometry width="50" height="50" relative="1" as="geometry">
            <mxPoint x="480" y="290" as="sourcePoint" />
            <mxPoint x="650" y="290" as="targetPoint" />
          </mxGeometry>
        </mxCell>
        <mxCell id="85ITMRcIbwLI7j-geZzP-44" value="" style="endArrow=none;html=1;rounded=0;entryX=0.144;entryY=0.198;entryDx=0;entryDy=0;entryPerimeter=0;" parent="1" target="85ITMRcIbwLI7j-geZzP-139" edge="1">
          <mxGeometry width="50" height="50" relative="1" as="geometry">
            <mxPoint x="670" y="629.46" as="sourcePoint" />
            <mxPoint x="740" y="629.46" as="targetPoint" />
          </mxGeometry>
        </mxCell>
        <mxCell id="85ITMRcIbwLI7j-geZzP-45" value="" style="endArrow=classic;html=1;rounded=0;exitX=0.005;exitY=0.473;exitDx=0;exitDy=0;exitPerimeter=0;" parent="1" source="85ITMRcIbwLI7j-geZzP-51" edge="1">
          <mxGeometry width="50" height="50" relative="1" as="geometry">
            <mxPoint x="370" y="870" as="sourcePoint" />
            <mxPoint x="280" y="870" as="targetPoint" />
          </mxGeometry>
        </mxCell>
        <mxCell id="85ITMRcIbwLI7j-geZzP-46" value="" style="endArrow=classic;html=1;rounded=0;" parent="1" edge="1">
          <mxGeometry width="50" height="50" relative="1" as="geometry">
            <mxPoint x="282.5" y="990" as="sourcePoint" />
            <mxPoint x="372.5" y="990" as="targetPoint" />
          </mxGeometry>
        </mxCell>
        <mxCell id="85ITMRcIbwLI7j-geZzP-47" value="" style="endArrow=classic;html=1;rounded=0;" parent="1" edge="1">
          <mxGeometry width="50" height="50" relative="1" as="geometry">
            <mxPoint x="285" y="1059.8" as="sourcePoint" />
            <mxPoint x="375" y="1059.8" as="targetPoint" />
          </mxGeometry>
        </mxCell>
        <mxCell id="85ITMRcIbwLI7j-geZzP-48" value="branch_ready_o" style="text;html=1;align=center;verticalAlign=middle;resizable=0;points=[];autosize=1;strokeColor=none;fillColor=none;" parent="1" vertex="1">
          <mxGeometry x="270" y="838" width="120" height="30" as="geometry" />
        </mxCell>
        <mxCell id="85ITMRcIbwLI7j-geZzP-49" value="branch_valid_i" style="text;html=1;align=center;verticalAlign=middle;resizable=0;points=[];autosize=1;strokeColor=none;fillColor=none;" parent="1" vertex="1">
          <mxGeometry x="267.5" y="960" width="110" height="30" as="geometry" />
        </mxCell>
        <mxCell id="85ITMRcIbwLI7j-geZzP-50" value="branch_insn" style="text;html=1;align=center;verticalAlign=middle;resizable=0;points=[];autosize=1;strokeColor=none;fillColor=none;" parent="1" vertex="1">
          <mxGeometry x="270" y="1029.8" width="90" height="30" as="geometry" />
        </mxCell>
        <mxCell id="85ITMRcIbwLI7j-geZzP-51" value="==" style="ellipse;whiteSpace=wrap;html=1;aspect=fixed;" parent="1" vertex="1">
          <mxGeometry x="420" y="830" width="80" height="80" as="geometry" />
        </mxCell>
        <mxCell id="85ITMRcIbwLI7j-geZzP-52" value="" style="shape=or;whiteSpace=wrap;html=1;" parent="1" vertex="1">
          <mxGeometry x="440" y="930" width="60" height="80" as="geometry" />
        </mxCell>
        <mxCell id="85ITMRcIbwLI7j-geZzP-53" value="" style="endArrow=none;html=1;rounded=0;entryX=0;entryY=0.75;entryDx=0;entryDy=0;entryPerimeter=0;" parent="1" target="85ITMRcIbwLI7j-geZzP-52" edge="1">
          <mxGeometry width="50" height="50" relative="1" as="geometry">
            <mxPoint x="370" y="990" as="sourcePoint" />
            <mxPoint x="530" y="960" as="targetPoint" />
          </mxGeometry>
        </mxCell>
        <mxCell id="85ITMRcIbwLI7j-geZzP-54" value="" style="endArrow=none;html=1;rounded=0;entryX=0;entryY=0.25;entryDx=0;entryDy=0;entryPerimeter=0;" parent="1" target="85ITMRcIbwLI7j-geZzP-52" edge="1">
          <mxGeometry width="50" height="50" relative="1" as="geometry">
            <mxPoint x="380" y="950" as="sourcePoint" />
            <mxPoint x="427.5" y="950" as="targetPoint" />
          </mxGeometry>
        </mxCell>
        <mxCell id="85ITMRcIbwLI7j-geZzP-55" value="" style="endArrow=none;html=1;rounded=0;" parent="1" edge="1">
          <mxGeometry width="50" height="50" relative="1" as="geometry">
            <mxPoint x="380" y="950" as="sourcePoint" />
            <mxPoint x="380" y="870" as="targetPoint" />
          </mxGeometry>
        </mxCell>
        <mxCell id="85ITMRcIbwLI7j-geZzP-56" value="" style="shape=trapezoid;perimeter=trapezoidPerimeter;whiteSpace=wrap;html=1;fixedSize=1;direction=south;" parent="1" vertex="1">
          <mxGeometry x="610" y="1029.8" width="60" height="120" as="geometry" />
        </mxCell>
        <mxCell id="85ITMRcIbwLI7j-geZzP-57" value="" style="endArrow=none;html=1;rounded=0;" parent="1" edge="1">
          <mxGeometry width="50" height="50" relative="1" as="geometry">
            <mxPoint x="500" y="969.8" as="sourcePoint" />
            <mxPoint x="650" y="970" as="targetPoint" />
          </mxGeometry>
        </mxCell>
        <mxCell id="85ITMRcIbwLI7j-geZzP-58" value="" style="endArrow=none;html=1;rounded=0;" parent="1" edge="1">
          <mxGeometry width="50" height="50" relative="1" as="geometry">
            <mxPoint x="650" y="1040" as="sourcePoint" />
            <mxPoint x="650" y="750" as="targetPoint" />
          </mxGeometry>
        </mxCell>
        <mxCell id="85ITMRcIbwLI7j-geZzP-59" value="" style="endArrow=none;html=1;rounded=0;entryX=0.25;entryY=1;entryDx=0;entryDy=0;" parent="1" target="85ITMRcIbwLI7j-geZzP-56" edge="1">
          <mxGeometry width="50" height="50" relative="1" as="geometry">
            <mxPoint x="375" y="1059.8" as="sourcePoint" />
            <mxPoint x="510" y="1060" as="targetPoint" />
          </mxGeometry>
        </mxCell>
        <mxCell id="85ITMRcIbwLI7j-geZzP-60" value="" style="endArrow=none;html=1;rounded=0;entryX=0.25;entryY=1;entryDx=0;entryDy=0;" parent="1" edge="1">
          <mxGeometry width="50" height="50" relative="1" as="geometry">
            <mxPoint x="565" y="1120" as="sourcePoint" />
            <mxPoint x="610" y="1120.2" as="targetPoint" />
          </mxGeometry>
        </mxCell>
        <mxCell id="85ITMRcIbwLI7j-geZzP-61" value="&#39;0" style="text;html=1;align=center;verticalAlign=middle;resizable=0;points=[];autosize=1;strokeColor=none;fillColor=none;" parent="1" vertex="1">
          <mxGeometry x="540" y="1098" width="30" height="30" as="geometry" />
        </mxCell>
        <mxCell id="85ITMRcIbwLI7j-geZzP-62" value="" style="endArrow=none;html=1;rounded=0;exitX=0.097;exitY=0.43;exitDx=0;exitDy=0;exitPerimeter=0;" parent="1" edge="1">
          <mxGeometry width="50" height="50" relative="1" as="geometry">
            <mxPoint x="530" y="1061" as="sourcePoint" />
            <mxPoint x="530" y="890" as="targetPoint" />
          </mxGeometry>
        </mxCell>
        <mxCell id="85ITMRcIbwLI7j-geZzP-63" value="" style="endArrow=none;html=1;rounded=0;" parent="1" edge="1">
          <mxGeometry width="50" height="50" relative="1" as="geometry">
            <mxPoint x="490" y="890" as="sourcePoint" />
            <mxPoint x="530" y="890" as="targetPoint" />
          </mxGeometry>
        </mxCell>
        <mxCell id="85ITMRcIbwLI7j-geZzP-64" value="" style="endArrow=none;html=1;rounded=0;" parent="1" edge="1">
          <mxGeometry width="50" height="50" relative="1" as="geometry">
            <mxPoint x="515" y="1050" as="sourcePoint" />
            <mxPoint x="545" y="1020" as="targetPoint" />
          </mxGeometry>
        </mxCell>
        <mxCell id="85ITMRcIbwLI7j-geZzP-65" value=".token" style="text;html=1;align=center;verticalAlign=middle;resizable=0;points=[];autosize=1;strokeColor=none;fillColor=none;" parent="1" vertex="1">
          <mxGeometry x="520" y="930" width="60" height="30" as="geometry" />
        </mxCell>
        <mxCell id="85ITMRcIbwLI7j-geZzP-66" value="" style="endArrow=none;html=1;rounded=0;" parent="1" edge="1">
          <mxGeometry width="50" height="50" relative="1" as="geometry">
            <mxPoint x="495" y="850" as="sourcePoint" />
            <mxPoint x="700" y="850" as="targetPoint" />
          </mxGeometry>
        </mxCell>
        <mxCell id="85ITMRcIbwLI7j-geZzP-67" value="" style="endArrow=none;html=1;rounded=0;" parent="1" edge="1">
          <mxGeometry width="50" height="50" relative="1" as="geometry">
            <mxPoint x="530" y="1000" as="sourcePoint" />
            <mxPoint x="600" y="1000" as="targetPoint" />
          </mxGeometry>
        </mxCell>
        <mxCell id="85ITMRcIbwLI7j-geZzP-68" value="" style="endArrow=none;html=1;rounded=0;exitX=0.097;exitY=0.43;exitDx=0;exitDy=0;exitPerimeter=0;" parent="1" edge="1">
          <mxGeometry width="50" height="50" relative="1" as="geometry">
            <mxPoint x="600" y="1001" as="sourcePoint" />
            <mxPoint x="600" y="790" as="targetPoint" />
          </mxGeometry>
        </mxCell>
        <mxCell id="85ITMRcIbwLI7j-geZzP-69" value=".trap" style="text;html=1;align=center;verticalAlign=middle;resizable=0;points=[];autosize=1;strokeColor=none;fillColor=none;" parent="1" vertex="1">
          <mxGeometry x="590" y="930" width="50" height="30" as="geometry" />
        </mxCell>
        <mxCell id="85ITMRcIbwLI7j-geZzP-70" value="" style="shape=or;whiteSpace=wrap;html=1;direction=west;" parent="1" vertex="1">
          <mxGeometry x="420" y="730" width="60" height="80" as="geometry" />
        </mxCell>
        <mxCell id="85ITMRcIbwLI7j-geZzP-71" value="branch_commit_o" style="text;html=1;align=center;verticalAlign=middle;resizable=0;points=[];autosize=1;strokeColor=none;fillColor=none;" parent="1" vertex="1">
          <mxGeometry x="265" y="740" width="130" height="30" as="geometry" />
        </mxCell>
        <mxCell id="85ITMRcIbwLI7j-geZzP-72" value="" style="endArrow=classic;html=1;rounded=0;entryX=0.02;entryY=1.062;entryDx=0;entryDy=0;entryPerimeter=0;" parent="1" target="85ITMRcIbwLI7j-geZzP-71" edge="1">
          <mxGeometry width="50" height="50" relative="1" as="geometry">
            <mxPoint x="420" y="770" as="sourcePoint" />
            <mxPoint x="290" y="771" as="targetPoint" />
          </mxGeometry>
        </mxCell>
        <mxCell id="85ITMRcIbwLI7j-geZzP-73" value="" style="endArrow=none;html=1;rounded=0;" parent="1" edge="1">
          <mxGeometry width="50" height="50" relative="1" as="geometry">
            <mxPoint x="480" y="790" as="sourcePoint" />
            <mxPoint x="600" y="790" as="targetPoint" />
          </mxGeometry>
        </mxCell>
        <mxCell id="85ITMRcIbwLI7j-geZzP-74" value="" style="endArrow=none;html=1;rounded=0;" parent="1" edge="1">
          <mxGeometry width="50" height="50" relative="1" as="geometry">
            <mxPoint x="480" y="750" as="sourcePoint" />
            <mxPoint x="690" y="750" as="targetPoint" />
          </mxGeometry>
        </mxCell>
        <mxCell id="85ITMRcIbwLI7j-geZzP-75" value="" style="endArrow=none;html=1;rounded=0;" parent="1" edge="1">
          <mxGeometry width="50" height="50" relative="1" as="geometry">
            <mxPoint x="670" y="1089.46" as="sourcePoint" />
            <mxPoint x="720" y="1089" as="targetPoint" />
          </mxGeometry>
        </mxCell>
        <mxCell id="85ITMRcIbwLI7j-geZzP-76" value="" style="endArrow=classic;html=1;rounded=0;exitX=0.005;exitY=0.473;exitDx=0;exitDy=0;exitPerimeter=0;" parent="1" source="85ITMRcIbwLI7j-geZzP-82" edge="1">
          <mxGeometry width="50" height="50" relative="1" as="geometry">
            <mxPoint x="357.5" y="1320" as="sourcePoint" />
            <mxPoint x="267.5" y="1320" as="targetPoint" />
          </mxGeometry>
        </mxCell>
        <mxCell id="85ITMRcIbwLI7j-geZzP-77" value="" style="endArrow=classic;html=1;rounded=0;" parent="1" edge="1">
          <mxGeometry width="50" height="50" relative="1" as="geometry">
            <mxPoint x="270" y="1440" as="sourcePoint" />
            <mxPoint x="360" y="1440" as="targetPoint" />
          </mxGeometry>
        </mxCell>
        <mxCell id="85ITMRcIbwLI7j-geZzP-78" value="" style="endArrow=classic;html=1;rounded=0;" parent="1" edge="1">
          <mxGeometry width="50" height="50" relative="1" as="geometry">
            <mxPoint x="272.5" y="1509.8" as="sourcePoint" />
            <mxPoint x="362.5" y="1509.8" as="targetPoint" />
          </mxGeometry>
        </mxCell>
        <mxCell id="85ITMRcIbwLI7j-geZzP-79" value="mem_ready_o" style="text;html=1;align=center;verticalAlign=middle;resizable=0;points=[];autosize=1;strokeColor=none;fillColor=none;" parent="1" vertex="1">
          <mxGeometry x="267.5" y="1288" width="100" height="30" as="geometry" />
        </mxCell>
        <mxCell id="85ITMRcIbwLI7j-geZzP-80" value="mem_valid_i" style="text;html=1;align=center;verticalAlign=middle;resizable=0;points=[];autosize=1;strokeColor=none;fillColor=none;" parent="1" vertex="1">
          <mxGeometry x="260" y="1410" width="100" height="30" as="geometry" />
        </mxCell>
        <mxCell id="85ITMRcIbwLI7j-geZzP-81" value="mem_insn" style="text;html=1;align=center;verticalAlign=middle;resizable=0;points=[];autosize=1;strokeColor=none;fillColor=none;" parent="1" vertex="1">
          <mxGeometry x="262.5" y="1479.8" width="80" height="30" as="geometry" />
        </mxCell>
        <mxCell id="85ITMRcIbwLI7j-geZzP-82" value="==" style="ellipse;whiteSpace=wrap;html=1;aspect=fixed;" parent="1" vertex="1">
          <mxGeometry x="407.5" y="1280" width="80" height="80" as="geometry" />
        </mxCell>
        <mxCell id="85ITMRcIbwLI7j-geZzP-83" value="" style="shape=or;whiteSpace=wrap;html=1;" parent="1" vertex="1">
          <mxGeometry x="427.5" y="1380" width="60" height="80" as="geometry" />
        </mxCell>
        <mxCell id="85ITMRcIbwLI7j-geZzP-84" value="" style="endArrow=none;html=1;rounded=0;entryX=0;entryY=0.75;entryDx=0;entryDy=0;entryPerimeter=0;" parent="1" target="85ITMRcIbwLI7j-geZzP-83" edge="1">
          <mxGeometry width="50" height="50" relative="1" as="geometry">
            <mxPoint x="357.5" y="1440" as="sourcePoint" />
            <mxPoint x="517.5" y="1410" as="targetPoint" />
          </mxGeometry>
        </mxCell>
        <mxCell id="85ITMRcIbwLI7j-geZzP-85" value="" style="endArrow=none;html=1;rounded=0;entryX=0;entryY=0.25;entryDx=0;entryDy=0;entryPerimeter=0;" parent="1" target="85ITMRcIbwLI7j-geZzP-83" edge="1">
          <mxGeometry width="50" height="50" relative="1" as="geometry">
            <mxPoint x="367.5" y="1400" as="sourcePoint" />
            <mxPoint x="415" y="1400" as="targetPoint" />
          </mxGeometry>
        </mxCell>
        <mxCell id="85ITMRcIbwLI7j-geZzP-86" value="" style="endArrow=none;html=1;rounded=0;" parent="1" edge="1">
          <mxGeometry width="50" height="50" relative="1" as="geometry">
            <mxPoint x="367.5" y="1400" as="sourcePoint" />
            <mxPoint x="367.5" y="1320" as="targetPoint" />
          </mxGeometry>
        </mxCell>
        <mxCell id="85ITMRcIbwLI7j-geZzP-87" value="" style="shape=trapezoid;perimeter=trapezoidPerimeter;whiteSpace=wrap;html=1;fixedSize=1;direction=south;" parent="1" vertex="1">
          <mxGeometry x="597.5" y="1479.8" width="60" height="120" as="geometry" />
        </mxCell>
        <mxCell id="85ITMRcIbwLI7j-geZzP-88" value="" style="endArrow=none;html=1;rounded=0;" parent="1" edge="1">
          <mxGeometry width="50" height="50" relative="1" as="geometry">
            <mxPoint x="487.5" y="1419.8" as="sourcePoint" />
            <mxPoint x="637.5" y="1420" as="targetPoint" />
          </mxGeometry>
        </mxCell>
        <mxCell id="85ITMRcIbwLI7j-geZzP-89" value="" style="endArrow=none;html=1;rounded=0;" parent="1" edge="1">
          <mxGeometry width="50" height="50" relative="1" as="geometry">
            <mxPoint x="637.5" y="1490" as="sourcePoint" />
            <mxPoint x="637.5" y="1200" as="targetPoint" />
          </mxGeometry>
        </mxCell>
        <mxCell id="85ITMRcIbwLI7j-geZzP-90" value="" style="endArrow=none;html=1;rounded=0;entryX=0.25;entryY=1;entryDx=0;entryDy=0;" parent="1" target="85ITMRcIbwLI7j-geZzP-87" edge="1">
          <mxGeometry width="50" height="50" relative="1" as="geometry">
            <mxPoint x="362.5" y="1509.8" as="sourcePoint" />
            <mxPoint x="497.5" y="1510" as="targetPoint" />
          </mxGeometry>
        </mxCell>
        <mxCell id="85ITMRcIbwLI7j-geZzP-91" value="" style="endArrow=none;html=1;rounded=0;entryX=0.25;entryY=1;entryDx=0;entryDy=0;" parent="1" edge="1">
          <mxGeometry width="50" height="50" relative="1" as="geometry">
            <mxPoint x="552.5" y="1570" as="sourcePoint" />
            <mxPoint x="597.5" y="1570.2" as="targetPoint" />
          </mxGeometry>
        </mxCell>
        <mxCell id="85ITMRcIbwLI7j-geZzP-92" value="&#39;0" style="text;html=1;align=center;verticalAlign=middle;resizable=0;points=[];autosize=1;strokeColor=none;fillColor=none;" parent="1" vertex="1">
          <mxGeometry x="527.5" y="1548" width="30" height="30" as="geometry" />
        </mxCell>
        <mxCell id="85ITMRcIbwLI7j-geZzP-93" value="" style="endArrow=none;html=1;rounded=0;exitX=0.097;exitY=0.43;exitDx=0;exitDy=0;exitPerimeter=0;" parent="1" edge="1">
          <mxGeometry width="50" height="50" relative="1" as="geometry">
            <mxPoint x="517.5" y="1511" as="sourcePoint" />
            <mxPoint x="517.5" y="1340" as="targetPoint" />
          </mxGeometry>
        </mxCell>
        <mxCell id="85ITMRcIbwLI7j-geZzP-94" value="" style="endArrow=none;html=1;rounded=0;" parent="1" edge="1">
          <mxGeometry width="50" height="50" relative="1" as="geometry">
            <mxPoint x="477.5" y="1340" as="sourcePoint" />
            <mxPoint x="517.5" y="1340" as="targetPoint" />
          </mxGeometry>
        </mxCell>
        <mxCell id="85ITMRcIbwLI7j-geZzP-95" value="" style="endArrow=none;html=1;rounded=0;" parent="1" edge="1">
          <mxGeometry width="50" height="50" relative="1" as="geometry">
            <mxPoint x="502.5" y="1500" as="sourcePoint" />
            <mxPoint x="532.5" y="1470" as="targetPoint" />
          </mxGeometry>
        </mxCell>
        <mxCell id="85ITMRcIbwLI7j-geZzP-96" value=".token" style="text;html=1;align=center;verticalAlign=middle;resizable=0;points=[];autosize=1;strokeColor=none;fillColor=none;" parent="1" vertex="1">
          <mxGeometry x="507.5" y="1380" width="60" height="30" as="geometry" />
        </mxCell>
        <mxCell id="85ITMRcIbwLI7j-geZzP-97" value="" style="endArrow=none;html=1;rounded=0;" parent="1" edge="1">
          <mxGeometry width="50" height="50" relative="1" as="geometry">
            <mxPoint x="482.5" y="1300" as="sourcePoint" />
            <mxPoint x="710" y="1300" as="targetPoint" />
          </mxGeometry>
        </mxCell>
        <mxCell id="85ITMRcIbwLI7j-geZzP-98" value="" style="endArrow=none;html=1;rounded=0;" parent="1" edge="1">
          <mxGeometry width="50" height="50" relative="1" as="geometry">
            <mxPoint x="517.5" y="1450" as="sourcePoint" />
            <mxPoint x="587.5" y="1450" as="targetPoint" />
          </mxGeometry>
        </mxCell>
        <mxCell id="85ITMRcIbwLI7j-geZzP-99" value="" style="endArrow=none;html=1;rounded=0;exitX=0.097;exitY=0.43;exitDx=0;exitDy=0;exitPerimeter=0;" parent="1" edge="1">
          <mxGeometry width="50" height="50" relative="1" as="geometry">
            <mxPoint x="587.5" y="1451" as="sourcePoint" />
            <mxPoint x="587.5" y="1240" as="targetPoint" />
          </mxGeometry>
        </mxCell>
        <mxCell id="85ITMRcIbwLI7j-geZzP-100" value=".trap" style="text;html=1;align=center;verticalAlign=middle;resizable=0;points=[];autosize=1;strokeColor=none;fillColor=none;" parent="1" vertex="1">
          <mxGeometry x="577.5" y="1380" width="50" height="30" as="geometry" />
        </mxCell>
        <mxCell id="85ITMRcIbwLI7j-geZzP-101" value="" style="shape=or;whiteSpace=wrap;html=1;direction=west;" parent="1" vertex="1">
          <mxGeometry x="407.5" y="1180" width="60" height="80" as="geometry" />
        </mxCell>
        <mxCell id="85ITMRcIbwLI7j-geZzP-102" value="mem_commit_o" style="text;html=1;align=center;verticalAlign=middle;resizable=0;points=[];autosize=1;strokeColor=none;fillColor=none;" parent="1" vertex="1">
          <mxGeometry x="262.5" y="1190" width="110" height="30" as="geometry" />
        </mxCell>
        <mxCell id="85ITMRcIbwLI7j-geZzP-103" value="" style="endArrow=classic;html=1;rounded=0;entryX=0.02;entryY=1.062;entryDx=0;entryDy=0;entryPerimeter=0;" parent="1" target="85ITMRcIbwLI7j-geZzP-102" edge="1">
          <mxGeometry width="50" height="50" relative="1" as="geometry">
            <mxPoint x="407.5" y="1220" as="sourcePoint" />
            <mxPoint x="277.5" y="1221" as="targetPoint" />
          </mxGeometry>
        </mxCell>
        <mxCell id="85ITMRcIbwLI7j-geZzP-104" value="" style="endArrow=none;html=1;rounded=0;" parent="1" edge="1">
          <mxGeometry width="50" height="50" relative="1" as="geometry">
            <mxPoint x="467.5" y="1240" as="sourcePoint" />
            <mxPoint x="587.5" y="1240" as="targetPoint" />
          </mxGeometry>
        </mxCell>
        <mxCell id="85ITMRcIbwLI7j-geZzP-105" value="" style="endArrow=none;html=1;rounded=0;" parent="1" edge="1">
          <mxGeometry width="50" height="50" relative="1" as="geometry">
            <mxPoint x="467.5" y="1200" as="sourcePoint" />
            <mxPoint x="750" y="1200" as="targetPoint" />
          </mxGeometry>
        </mxCell>
        <mxCell id="85ITMRcIbwLI7j-geZzP-106" value="" style="endArrow=none;html=1;rounded=0;" parent="1" edge="1">
          <mxGeometry width="50" height="50" relative="1" as="geometry">
            <mxPoint x="657.5" y="1539.46" as="sourcePoint" />
            <mxPoint x="760" y="1540" as="targetPoint" />
          </mxGeometry>
        </mxCell>
        <mxCell id="85ITMRcIbwLI7j-geZzP-107" value="" style="endArrow=classic;html=1;rounded=0;exitX=0.005;exitY=0.473;exitDx=0;exitDy=0;exitPerimeter=0;" parent="1" source="85ITMRcIbwLI7j-geZzP-113" edge="1">
          <mxGeometry width="50" height="50" relative="1" as="geometry">
            <mxPoint x="376.5" y="1770" as="sourcePoint" />
            <mxPoint x="286.5" y="1770" as="targetPoint" />
          </mxGeometry>
        </mxCell>
        <mxCell id="85ITMRcIbwLI7j-geZzP-108" value="" style="endArrow=classic;html=1;rounded=0;" parent="1" edge="1">
          <mxGeometry width="50" height="50" relative="1" as="geometry">
            <mxPoint x="289" y="1890" as="sourcePoint" />
            <mxPoint x="379" y="1890" as="targetPoint" />
          </mxGeometry>
        </mxCell>
        <mxCell id="85ITMRcIbwLI7j-geZzP-109" value="" style="endArrow=classic;html=1;rounded=0;" parent="1" edge="1">
          <mxGeometry width="50" height="50" relative="1" as="geometry">
            <mxPoint x="291.5" y="1959.8" as="sourcePoint" />
            <mxPoint x="381.5" y="1959.8" as="targetPoint" />
          </mxGeometry>
        </mxCell>
        <mxCell id="85ITMRcIbwLI7j-geZzP-110" value="ctrlstatus_ready_o" style="text;html=1;align=center;verticalAlign=middle;resizable=0;points=[];autosize=1;strokeColor=none;fillColor=none;" parent="1" vertex="1">
          <mxGeometry x="271.5" y="1738" width="130" height="30" as="geometry" />
        </mxCell>
        <mxCell id="85ITMRcIbwLI7j-geZzP-111" value="ctrlstatus_valid_i" style="text;html=1;align=center;verticalAlign=middle;resizable=0;points=[];autosize=1;strokeColor=none;fillColor=none;" parent="1" vertex="1">
          <mxGeometry x="269" y="1860" width="120" height="30" as="geometry" />
        </mxCell>
        <mxCell id="85ITMRcIbwLI7j-geZzP-112" value="ctrlstatus_insn" style="text;html=1;align=center;verticalAlign=middle;resizable=0;points=[];autosize=1;strokeColor=none;fillColor=none;" parent="1" vertex="1">
          <mxGeometry x="266.5" y="1929.8" width="110" height="30" as="geometry" />
        </mxCell>
        <mxCell id="85ITMRcIbwLI7j-geZzP-113" value="==" style="ellipse;whiteSpace=wrap;html=1;aspect=fixed;" parent="1" vertex="1">
          <mxGeometry x="426.5" y="1730" width="80" height="80" as="geometry" />
        </mxCell>
        <mxCell id="85ITMRcIbwLI7j-geZzP-114" value="" style="shape=or;whiteSpace=wrap;html=1;" parent="1" vertex="1">
          <mxGeometry x="446.5" y="1830" width="60" height="80" as="geometry" />
        </mxCell>
        <mxCell id="85ITMRcIbwLI7j-geZzP-115" value="" style="endArrow=none;html=1;rounded=0;entryX=0;entryY=0.75;entryDx=0;entryDy=0;entryPerimeter=0;" parent="1" target="85ITMRcIbwLI7j-geZzP-114" edge="1">
          <mxGeometry width="50" height="50" relative="1" as="geometry">
            <mxPoint x="376.5" y="1890" as="sourcePoint" />
            <mxPoint x="536.5" y="1860" as="targetPoint" />
          </mxGeometry>
        </mxCell>
        <mxCell id="85ITMRcIbwLI7j-geZzP-116" value="" style="endArrow=none;html=1;rounded=0;entryX=0;entryY=0.25;entryDx=0;entryDy=0;entryPerimeter=0;" parent="1" target="85ITMRcIbwLI7j-geZzP-114" edge="1">
          <mxGeometry width="50" height="50" relative="1" as="geometry">
            <mxPoint x="386.5" y="1850" as="sourcePoint" />
            <mxPoint x="434" y="1850" as="targetPoint" />
          </mxGeometry>
        </mxCell>
        <mxCell id="85ITMRcIbwLI7j-geZzP-117" value="" style="endArrow=none;html=1;rounded=0;" parent="1" edge="1">
          <mxGeometry width="50" height="50" relative="1" as="geometry">
            <mxPoint x="386.5" y="1850" as="sourcePoint" />
            <mxPoint x="386.5" y="1770" as="targetPoint" />
          </mxGeometry>
        </mxCell>
        <mxCell id="85ITMRcIbwLI7j-geZzP-118" value="" style="shape=trapezoid;perimeter=trapezoidPerimeter;whiteSpace=wrap;html=1;fixedSize=1;direction=south;" parent="1" vertex="1">
          <mxGeometry x="616.5" y="1929.8" width="60" height="120" as="geometry" />
        </mxCell>
        <mxCell id="85ITMRcIbwLI7j-geZzP-119" value="" style="endArrow=none;html=1;rounded=0;" parent="1" edge="1">
          <mxGeometry width="50" height="50" relative="1" as="geometry">
            <mxPoint x="506.5" y="1869.8" as="sourcePoint" />
            <mxPoint x="656.5" y="1870" as="targetPoint" />
          </mxGeometry>
        </mxCell>
        <mxCell id="85ITMRcIbwLI7j-geZzP-120" value="" style="endArrow=none;html=1;rounded=0;" parent="1" edge="1">
          <mxGeometry width="50" height="50" relative="1" as="geometry">
            <mxPoint x="656.5" y="1940" as="sourcePoint" />
            <mxPoint x="656.5" y="1650" as="targetPoint" />
          </mxGeometry>
        </mxCell>
        <mxCell id="85ITMRcIbwLI7j-geZzP-121" value="" style="endArrow=none;html=1;rounded=0;entryX=0.25;entryY=1;entryDx=0;entryDy=0;" parent="1" target="85ITMRcIbwLI7j-geZzP-118" edge="1">
          <mxGeometry width="50" height="50" relative="1" as="geometry">
            <mxPoint x="381.5" y="1959.8" as="sourcePoint" />
            <mxPoint x="516.5" y="1960" as="targetPoint" />
          </mxGeometry>
        </mxCell>
        <mxCell id="85ITMRcIbwLI7j-geZzP-122" value="" style="endArrow=none;html=1;rounded=0;entryX=0.25;entryY=1;entryDx=0;entryDy=0;" parent="1" edge="1">
          <mxGeometry width="50" height="50" relative="1" as="geometry">
            <mxPoint x="571.5" y="2020" as="sourcePoint" />
            <mxPoint x="616.5" y="2020.1999999999998" as="targetPoint" />
          </mxGeometry>
        </mxCell>
        <mxCell id="85ITMRcIbwLI7j-geZzP-123" value="&#39;0" style="text;html=1;align=center;verticalAlign=middle;resizable=0;points=[];autosize=1;strokeColor=none;fillColor=none;" parent="1" vertex="1">
          <mxGeometry x="546.5" y="1998" width="30" height="30" as="geometry" />
        </mxCell>
        <mxCell id="85ITMRcIbwLI7j-geZzP-124" value="" style="endArrow=none;html=1;rounded=0;exitX=0.097;exitY=0.43;exitDx=0;exitDy=0;exitPerimeter=0;" parent="1" edge="1">
          <mxGeometry width="50" height="50" relative="1" as="geometry">
            <mxPoint x="536.5" y="1961" as="sourcePoint" />
            <mxPoint x="536.5" y="1790" as="targetPoint" />
          </mxGeometry>
        </mxCell>
        <mxCell id="85ITMRcIbwLI7j-geZzP-125" value="" style="endArrow=none;html=1;rounded=0;" parent="1" edge="1">
          <mxGeometry width="50" height="50" relative="1" as="geometry">
            <mxPoint x="496.5" y="1790" as="sourcePoint" />
            <mxPoint x="536.5" y="1790" as="targetPoint" />
          </mxGeometry>
        </mxCell>
        <mxCell id="85ITMRcIbwLI7j-geZzP-126" value="" style="endArrow=none;html=1;rounded=0;" parent="1" edge="1">
          <mxGeometry width="50" height="50" relative="1" as="geometry">
            <mxPoint x="521.5" y="1950" as="sourcePoint" />
            <mxPoint x="551.5" y="1920" as="targetPoint" />
          </mxGeometry>
        </mxCell>
        <mxCell id="85ITMRcIbwLI7j-geZzP-127" value=".token" style="text;html=1;align=center;verticalAlign=middle;resizable=0;points=[];autosize=1;strokeColor=none;fillColor=none;" parent="1" vertex="1">
          <mxGeometry x="526.5" y="1830" width="60" height="30" as="geometry" />
        </mxCell>
        <mxCell id="85ITMRcIbwLI7j-geZzP-128" value="" style="endArrow=none;html=1;rounded=0;" parent="1" edge="1">
          <mxGeometry width="50" height="50" relative="1" as="geometry">
            <mxPoint x="501.5" y="1750" as="sourcePoint" />
            <mxPoint x="710" y="1750" as="targetPoint" />
          </mxGeometry>
        </mxCell>
        <mxCell id="85ITMRcIbwLI7j-geZzP-129" value="" style="endArrow=none;html=1;rounded=0;" parent="1" edge="1">
          <mxGeometry width="50" height="50" relative="1" as="geometry">
            <mxPoint x="536.5" y="1900" as="sourcePoint" />
            <mxPoint x="606.5" y="1900" as="targetPoint" />
          </mxGeometry>
        </mxCell>
        <mxCell id="85ITMRcIbwLI7j-geZzP-130" value="" style="endArrow=none;html=1;rounded=0;exitX=0.097;exitY=0.43;exitDx=0;exitDy=0;exitPerimeter=0;" parent="1" edge="1">
          <mxGeometry width="50" height="50" relative="1" as="geometry">
            <mxPoint x="606.5" y="1901" as="sourcePoint" />
            <mxPoint x="606.5" y="1690" as="targetPoint" />
          </mxGeometry>
        </mxCell>
        <mxCell id="85ITMRcIbwLI7j-geZzP-131" value=".trap" style="text;html=1;align=center;verticalAlign=middle;resizable=0;points=[];autosize=1;strokeColor=none;fillColor=none;" parent="1" vertex="1">
          <mxGeometry x="596.5" y="1830" width="50" height="30" as="geometry" />
        </mxCell>
        <mxCell id="85ITMRcIbwLI7j-geZzP-132" value="" style="shape=or;whiteSpace=wrap;html=1;direction=west;" parent="1" vertex="1">
          <mxGeometry x="426.5" y="1630" width="60" height="80" as="geometry" />
        </mxCell>
        <mxCell id="85ITMRcIbwLI7j-geZzP-133" value="ctrlstatus_commit_o" style="text;html=1;align=center;verticalAlign=middle;resizable=0;points=[];autosize=1;strokeColor=none;fillColor=none;" parent="1" vertex="1">
          <mxGeometry x="266.5" y="1640" width="140" height="30" as="geometry" />
        </mxCell>
        <mxCell id="85ITMRcIbwLI7j-geZzP-134" value="" style="endArrow=classic;html=1;rounded=0;entryX=0.02;entryY=1.062;entryDx=0;entryDy=0;entryPerimeter=0;" parent="1" target="85ITMRcIbwLI7j-geZzP-133" edge="1">
          <mxGeometry width="50" height="50" relative="1" as="geometry">
            <mxPoint x="426.5" y="1670" as="sourcePoint" />
            <mxPoint x="296.5" y="1671" as="targetPoint" />
          </mxGeometry>
        </mxCell>
        <mxCell id="85ITMRcIbwLI7j-geZzP-135" value="" style="endArrow=none;html=1;rounded=0;" parent="1" edge="1">
          <mxGeometry width="50" height="50" relative="1" as="geometry">
            <mxPoint x="486.5" y="1690" as="sourcePoint" />
            <mxPoint x="606.5" y="1690" as="targetPoint" />
          </mxGeometry>
        </mxCell>
        <mxCell id="85ITMRcIbwLI7j-geZzP-136" value="" style="endArrow=none;html=1;rounded=0;" parent="1" edge="1">
          <mxGeometry width="50" height="50" relative="1" as="geometry">
            <mxPoint x="486.5" y="1650" as="sourcePoint" />
            <mxPoint x="780" y="1650" as="targetPoint" />
          </mxGeometry>
        </mxCell>
        <mxCell id="85ITMRcIbwLI7j-geZzP-137" value="" style="endArrow=none;html=1;rounded=0;" parent="1" edge="1">
          <mxGeometry width="50" height="50" relative="1" as="geometry">
            <mxPoint x="676.5" y="1989.46" as="sourcePoint" />
            <mxPoint x="800" y="1990" as="targetPoint" />
          </mxGeometry>
        </mxCell>
        <mxCell id="85ITMRcIbwLI7j-geZzP-138" value="" style="endArrow=none;html=1;rounded=0;" parent="1" edge="1">
          <mxGeometry width="50" height="50" relative="1" as="geometry">
            <mxPoint x="710" y="1750" as="sourcePoint" />
            <mxPoint x="700" y="210" as="targetPoint" />
          </mxGeometry>
        </mxCell>
        <mxCell id="85ITMRcIbwLI7j-geZzP-139" value="insn" style="shape=xor;whiteSpace=wrap;html=1;" parent="1" vertex="1">
          <mxGeometry x="800" y="590" width="160" height="200" as="geometry" />
        </mxCell>
        <mxCell id="85ITMRcIbwLI7j-geZzP-140" value="" style="endArrow=none;html=1;rounded=0;" parent="1" edge="1">
          <mxGeometry width="50" height="50" relative="1" as="geometry">
            <mxPoint x="800" y="1970" as="sourcePoint" />
            <mxPoint x="790" y="750" as="targetPoint" />
          </mxGeometry>
        </mxCell>
        <mxCell id="85ITMRcIbwLI7j-geZzP-141" value="" style="endArrow=none;html=1;rounded=0;" parent="1" edge="1">
          <mxGeometry width="50" height="50" relative="1" as="geometry">
            <mxPoint x="760" y="1540" as="sourcePoint" />
            <mxPoint x="760" y="700" as="targetPoint" />
          </mxGeometry>
        </mxCell>
        <mxCell id="85ITMRcIbwLI7j-geZzP-143" value="" style="endArrow=none;html=1;rounded=0;" parent="1" edge="1">
          <mxGeometry width="50" height="50" relative="1" as="geometry">
            <mxPoint x="720" y="1090" as="sourcePoint" />
            <mxPoint x="720" y="670" as="targetPoint" />
          </mxGeometry>
        </mxCell>
        <mxCell id="85ITMRcIbwLI7j-geZzP-144" value="" style="endArrow=none;html=1;rounded=0;entryX=0.144;entryY=0.198;entryDx=0;entryDy=0;entryPerimeter=0;" parent="1" edge="1">
          <mxGeometry width="50" height="50" relative="1" as="geometry">
            <mxPoint x="720" y="670" as="sourcePoint" />
            <mxPoint x="843" y="668.54" as="targetPoint" />
          </mxGeometry>
        </mxCell>
        <mxCell id="85ITMRcIbwLI7j-geZzP-145" value="" style="endArrow=none;html=1;rounded=0;" parent="1" edge="1">
          <mxGeometry width="50" height="50" relative="1" as="geometry">
            <mxPoint x="760" y="700" as="sourcePoint" />
            <mxPoint x="840" y="700" as="targetPoint" />
          </mxGeometry>
        </mxCell>
        <mxCell id="85ITMRcIbwLI7j-geZzP-146" value="" style="endArrow=none;html=1;rounded=0;entryX=0.144;entryY=0.198;entryDx=0;entryDy=0;entryPerimeter=0;" parent="1" edge="1">
          <mxGeometry width="50" height="50" relative="1" as="geometry">
            <mxPoint x="790" y="750" as="sourcePoint" />
            <mxPoint x="823" y="750" as="targetPoint" />
          </mxGeometry>
        </mxCell>
        <mxCell id="85ITMRcIbwLI7j-geZzP-147" value="accept" style="shape=xor;whiteSpace=wrap;html=1;" parent="1" vertex="1">
          <mxGeometry x="790" y="250" width="160" height="200" as="geometry" />
        </mxCell>
        <mxCell id="85ITMRcIbwLI7j-geZzP-148" value="" style="endArrow=none;html=1;rounded=0;exitX=0.097;exitY=0.43;exitDx=0;exitDy=0;exitPerimeter=0;" parent="1" edge="1">
          <mxGeometry width="50" height="50" relative="1" as="geometry">
            <mxPoint x="690" y="750.8" as="sourcePoint" />
            <mxPoint x="690" y="330" as="targetPoint" />
          </mxGeometry>
        </mxCell>
        <mxCell id="85ITMRcIbwLI7j-geZzP-149" value="" style="endArrow=none;html=1;rounded=0;entryX=0.245;entryY=0.419;entryDx=0;entryDy=0;entryPerimeter=0;" parent="1" target="85ITMRcIbwLI7j-geZzP-147" edge="1">
          <mxGeometry width="50" height="50" relative="1" as="geometry">
            <mxPoint x="690" y="330" as="sourcePoint" />
            <mxPoint x="810" y="330" as="targetPoint" />
          </mxGeometry>
        </mxCell>
        <mxCell id="85ITMRcIbwLI7j-geZzP-150" value="" style="endArrow=none;html=1;rounded=0;" parent="1" edge="1">
          <mxGeometry width="50" height="50" relative="1" as="geometry">
            <mxPoint x="750" y="1200" as="sourcePoint" />
            <mxPoint x="750" y="380" as="targetPoint" />
          </mxGeometry>
        </mxCell>
        <mxCell id="85ITMRcIbwLI7j-geZzP-151" value="" style="endArrow=none;html=1;rounded=0;entryX=0.245;entryY=0.419;entryDx=0;entryDy=0;entryPerimeter=0;" parent="1" edge="1">
          <mxGeometry width="50" height="50" relative="1" as="geometry">
            <mxPoint x="750" y="380" as="sourcePoint" />
            <mxPoint x="829" y="382" as="targetPoint" />
          </mxGeometry>
        </mxCell>
        <mxCell id="85ITMRcIbwLI7j-geZzP-153" value="" style="endArrow=none;html=1;rounded=0;" parent="1" edge="1">
          <mxGeometry width="50" height="50" relative="1" as="geometry">
            <mxPoint x="780" y="1650" as="sourcePoint" />
            <mxPoint x="770" y="430" as="targetPoint" />
          </mxGeometry>
        </mxCell>
        <mxCell id="85ITMRcIbwLI7j-geZzP-155" value="" style="endArrow=none;html=1;rounded=0;" parent="1" edge="1">
          <mxGeometry width="50" height="50" relative="1" as="geometry">
            <mxPoint x="770" y="430" as="sourcePoint" />
            <mxPoint x="800" y="430" as="targetPoint" />
          </mxGeometry>
        </mxCell>
        <mxCell id="85ITMRcIbwLI7j-geZzP-157" value="" style="endArrow=none;html=1;rounded=0;entryX=0.12;entryY=0.103;entryDx=0;entryDy=0;entryPerimeter=0;" parent="1" target="85ITMRcIbwLI7j-geZzP-160" edge="1">
          <mxGeometry width="50" height="50" relative="1" as="geometry">
            <mxPoint x="960" y="689.71" as="sourcePoint" />
            <mxPoint x="1130" y="690" as="targetPoint" />
          </mxGeometry>
        </mxCell>
        <mxCell id="85ITMRcIbwLI7j-geZzP-158" value="" style="endArrow=none;html=1;rounded=0;" parent="1" edge="1">
          <mxGeometry width="50" height="50" relative="1" as="geometry">
            <mxPoint x="980" y="705" as="sourcePoint" />
            <mxPoint x="1010" y="675" as="targetPoint" />
          </mxGeometry>
        </mxCell>
        <mxCell id="85ITMRcIbwLI7j-geZzP-159" value="" style="endArrow=none;html=1;rounded=0;" parent="1" edge="1">
          <mxGeometry width="50" height="50" relative="1" as="geometry">
            <mxPoint x="1020" y="1510" as="sourcePoint" />
            <mxPoint x="1020" y="689.8" as="targetPoint" />
          </mxGeometry>
        </mxCell>
        <mxCell id="85ITMRcIbwLI7j-geZzP-160" value="" style="shape=xor;whiteSpace=wrap;html=1;" parent="1" vertex="1">
          <mxGeometry x="1160" y="680" width="60" height="80" as="geometry" />
        </mxCell>
        <mxCell id="85ITMRcIbwLI7j-geZzP-161" value=".jump" style="text;html=1;align=center;verticalAlign=middle;resizable=0;points=[];autosize=1;strokeColor=none;fillColor=none;" parent="1" vertex="1">
          <mxGeometry x="1021" y="658" width="60" height="30" as="geometry" />
        </mxCell>
        <mxCell id="85ITMRcIbwLI7j-geZzP-162" value=".trap" style="text;html=1;align=center;verticalAlign=middle;resizable=0;points=[];autosize=1;strokeColor=none;fillColor=none;" parent="1" vertex="1">
          <mxGeometry x="1021" y="720" width="50" height="30" as="geometry" />
        </mxCell>
        <mxCell id="85ITMRcIbwLI7j-geZzP-163" value="" style="endArrow=none;html=1;rounded=0;entryX=0.233;entryY=0.753;entryDx=0;entryDy=0;entryPerimeter=0;" parent="1" target="85ITMRcIbwLI7j-geZzP-160" edge="1">
          <mxGeometry width="50" height="50" relative="1" as="geometry">
            <mxPoint x="1020" y="746" as="sourcePoint" />
            <mxPoint x="1130" y="745.09" as="targetPoint" />
          </mxGeometry>
        </mxCell>
        <mxCell id="85ITMRcIbwLI7j-geZzP-165" value="" style="endArrow=classic;html=1;rounded=0;entryX=0.167;entryY=0.823;entryDx=0;entryDy=0;entryPerimeter=0;" parent="1" edge="1">
          <mxGeometry width="50" height="50" relative="1" as="geometry">
            <mxPoint x="1220" y="720" as="sourcePoint" />
            <mxPoint x="1370" y="720" as="targetPoint" />
          </mxGeometry>
        </mxCell>
        <mxCell id="85ITMRcIbwLI7j-geZzP-166" value="ctrl_flush_begin" style="text;html=1;align=center;verticalAlign=middle;resizable=0;points=[];autosize=1;strokeColor=none;fillColor=none;" parent="1" vertex="1">
          <mxGeometry x="1296" y="688" width="110" height="30" as="geometry" />
        </mxCell>
        <mxCell id="85ITMRcIbwLI7j-geZzP-167" value="" style="rounded=0;whiteSpace=wrap;html=1;" parent="1" vertex="1">
          <mxGeometry x="1240" y="790" width="40" height="100" as="geometry" />
        </mxCell>
        <mxCell id="85ITMRcIbwLI7j-geZzP-168" value="" style="triangle;whiteSpace=wrap;html=1;" parent="1" vertex="1">
          <mxGeometry x="1240" y="850" width="7.5" height="10" as="geometry" />
        </mxCell>
        <mxCell id="85ITMRcIbwLI7j-geZzP-169" value="D" style="text;html=1;align=center;verticalAlign=middle;resizable=0;points=[];autosize=1;strokeColor=none;fillColor=none;" parent="1" vertex="1">
          <mxGeometry x="1230" y="790" width="30" height="30" as="geometry" />
        </mxCell>
        <mxCell id="85ITMRcIbwLI7j-geZzP-170" value="Q" style="text;html=1;align=center;verticalAlign=middle;resizable=0;points=[];autosize=1;strokeColor=none;fillColor=none;" parent="1" vertex="1">
          <mxGeometry x="1260" y="790" width="30" height="30" as="geometry" />
        </mxCell>
        <mxCell id="85ITMRcIbwLI7j-geZzP-172" value="" style="endArrow=classic;html=1;rounded=0;entryX=0.167;entryY=0.823;entryDx=0;entryDy=0;entryPerimeter=0;" parent="1" edge="1">
          <mxGeometry width="50" height="50" relative="1" as="geometry">
            <mxPoint x="1280" y="805" as="sourcePoint" />
            <mxPoint x="1370" y="804.83" as="targetPoint" />
          </mxGeometry>
        </mxCell>
        <mxCell id="85ITMRcIbwLI7j-geZzP-173" value="ctrl_trap" style="text;html=1;align=center;verticalAlign=middle;resizable=0;points=[];autosize=1;strokeColor=none;fillColor=none;" parent="1" vertex="1">
          <mxGeometry x="1300" y="770" width="70" height="30" as="geometry" />
        </mxCell>
        <mxCell id="85ITMRcIbwLI7j-geZzP-174" value="" style="endArrow=none;html=1;rounded=0;" parent="1" edge="1">
          <mxGeometry width="50" height="50" relative="1" as="geometry">
            <mxPoint x="1110" y="1560" as="sourcePoint" />
            <mxPoint x="1111" y="550" as="targetPoint" />
          </mxGeometry>
        </mxCell>
        <mxCell id="85ITMRcIbwLI7j-geZzP-175" value="" style="endArrow=none;html=1;rounded=0;entryX=0.333;entryY=0.667;entryDx=0;entryDy=0;entryPerimeter=0;" parent="1" edge="1">
          <mxGeometry width="50" height="50" relative="1" as="geometry">
            <mxPoint x="1111.5" y="806" as="sourcePoint" />
            <mxPoint x="1239.99" y="806.01" as="targetPoint" />
          </mxGeometry>
        </mxCell>
        <mxCell id="85ITMRcIbwLI7j-geZzP-176" value="" style="endArrow=none;html=1;rounded=0;entryX=0.667;entryY=0.5;entryDx=0;entryDy=0;entryPerimeter=0;" parent="1" target="85ITMRcIbwLI7j-geZzP-180" edge="1">
          <mxGeometry width="50" height="50" relative="1" as="geometry">
            <mxPoint x="1021" y="920" as="sourcePoint" />
            <mxPoint x="1171" y="920" as="targetPoint" />
          </mxGeometry>
        </mxCell>
        <mxCell id="85ITMRcIbwLI7j-geZzP-178" value="" style="rounded=0;whiteSpace=wrap;html=1;" parent="1" vertex="1">
          <mxGeometry x="1240" y="905" width="40" height="100" as="geometry" />
        </mxCell>
        <mxCell id="85ITMRcIbwLI7j-geZzP-179" value="" style="triangle;whiteSpace=wrap;html=1;" parent="1" vertex="1">
          <mxGeometry x="1240" y="965" width="7.5" height="10" as="geometry" />
        </mxCell>
        <mxCell id="85ITMRcIbwLI7j-geZzP-180" value="D" style="text;html=1;align=center;verticalAlign=middle;resizable=0;points=[];autosize=1;strokeColor=none;fillColor=none;" parent="1" vertex="1">
          <mxGeometry x="1230" y="905" width="30" height="30" as="geometry" />
        </mxCell>
        <mxCell id="85ITMRcIbwLI7j-geZzP-181" value="Q" style="text;html=1;align=center;verticalAlign=middle;resizable=0;points=[];autosize=1;strokeColor=none;fillColor=none;" parent="1" vertex="1">
          <mxGeometry x="1260" y="905" width="30" height="30" as="geometry" />
        </mxCell>
        <mxCell id="85ITMRcIbwLI7j-geZzP-182" value="" style="endArrow=classic;html=1;rounded=0;entryX=0.167;entryY=0.823;entryDx=0;entryDy=0;entryPerimeter=0;" parent="1" edge="1">
          <mxGeometry width="50" height="50" relative="1" as="geometry">
            <mxPoint x="1280" y="920" as="sourcePoint" />
            <mxPoint x="1370" y="919.83" as="targetPoint" />
          </mxGeometry>
        </mxCell>
        <mxCell id="85ITMRcIbwLI7j-geZzP-183" value="ctrl_trap_cause" style="text;html=1;align=center;verticalAlign=middle;resizable=0;points=[];autosize=1;strokeColor=none;fillColor=none;" parent="1" vertex="1">
          <mxGeometry x="1280" y="885" width="110" height="30" as="geometry" />
        </mxCell>
        <mxCell id="85ITMRcIbwLI7j-geZzP-184" value="" style="rounded=0;whiteSpace=wrap;html=1;" parent="1" vertex="1">
          <mxGeometry x="1240" y="1020" width="40" height="100" as="geometry" />
        </mxCell>
        <mxCell id="85ITMRcIbwLI7j-geZzP-185" value="" style="triangle;whiteSpace=wrap;html=1;" parent="1" vertex="1">
          <mxGeometry x="1240" y="1080" width="7.5" height="10" as="geometry" />
        </mxCell>
        <mxCell id="85ITMRcIbwLI7j-geZzP-186" value="D" style="text;html=1;align=center;verticalAlign=middle;resizable=0;points=[];autosize=1;strokeColor=none;fillColor=none;" parent="1" vertex="1">
          <mxGeometry x="1230" y="1020" width="30" height="30" as="geometry" />
        </mxCell>
        <mxCell id="85ITMRcIbwLI7j-geZzP-187" value="Q" style="text;html=1;align=center;verticalAlign=middle;resizable=0;points=[];autosize=1;strokeColor=none;fillColor=none;" parent="1" vertex="1">
          <mxGeometry x="1260" y="1020" width="30" height="30" as="geometry" />
        </mxCell>
        <mxCell id="85ITMRcIbwLI7j-geZzP-188" value="" style="endArrow=classic;html=1;rounded=0;entryX=0.167;entryY=0.823;entryDx=0;entryDy=0;entryPerimeter=0;" parent="1" edge="1">
          <mxGeometry width="50" height="50" relative="1" as="geometry">
            <mxPoint x="1280" y="1035" as="sourcePoint" />
            <mxPoint x="1370" y="1034.83" as="targetPoint" />
          </mxGeometry>
        </mxCell>
        <mxCell id="85ITMRcIbwLI7j-geZzP-189" value="ctrl_trap_value" style="text;html=1;align=center;verticalAlign=middle;resizable=0;points=[];autosize=1;strokeColor=none;fillColor=none;" parent="1" vertex="1">
          <mxGeometry x="1280" y="1005" width="110" height="30" as="geometry" />
        </mxCell>
        <mxCell id="85ITMRcIbwLI7j-geZzP-190" value="" style="endArrow=none;html=1;rounded=0;" parent="1" edge="1">
          <mxGeometry width="50" height="50" relative="1" as="geometry">
            <mxPoint x="1021" y="1034.61" as="sourcePoint" />
            <mxPoint x="1240" y="1035" as="targetPoint" />
          </mxGeometry>
        </mxCell>
        <mxCell id="85ITMRcIbwLI7j-geZzP-191" value=".trap_cause" style="text;html=1;align=center;verticalAlign=middle;resizable=0;points=[];autosize=1;strokeColor=none;fillColor=none;" parent="1" vertex="1">
          <mxGeometry x="1021" y="890" width="90" height="30" as="geometry" />
        </mxCell>
        <mxCell id="85ITMRcIbwLI7j-geZzP-192" value=".trap_value" style="text;html=1;align=center;verticalAlign=middle;resizable=0;points=[];autosize=1;strokeColor=none;fillColor=none;" parent="1" vertex="1">
          <mxGeometry x="1021" y="1005" width="90" height="30" as="geometry" />
        </mxCell>
        <mxCell id="85ITMRcIbwLI7j-geZzP-197" value="" style="endArrow=classic;html=1;rounded=0;entryX=0.167;entryY=0.823;entryDx=0;entryDy=0;entryPerimeter=0;" parent="1" edge="1">
          <mxGeometry width="50" height="50" relative="1" as="geometry">
            <mxPoint x="1020" y="1150" as="sourcePoint" />
            <mxPoint x="1370" y="1149.83" as="targetPoint" />
          </mxGeometry>
        </mxCell>
        <mxCell id="85ITMRcIbwLI7j-geZzP-198" value="regfile_wr_addr" style="text;html=1;align=center;verticalAlign=middle;resizable=0;points=[];autosize=1;strokeColor=none;fillColor=none;" parent="1" vertex="1">
          <mxGeometry x="1290" y="1119.8" width="110" height="30" as="geometry" />
        </mxCell>
        <mxCell id="85ITMRcIbwLI7j-geZzP-200" value=".rd" style="text;html=1;align=center;verticalAlign=middle;resizable=0;points=[];autosize=1;strokeColor=none;fillColor=none;" parent="1" vertex="1">
          <mxGeometry x="1020" y="1119.8" width="40" height="30" as="geometry" />
        </mxCell>
        <mxCell id="85ITMRcIbwLI7j-geZzP-201" value="" style="endArrow=classic;html=1;rounded=0;entryX=0.167;entryY=0.823;entryDx=0;entryDy=0;entryPerimeter=0;" parent="1" edge="1">
          <mxGeometry width="50" height="50" relative="1" as="geometry">
            <mxPoint x="1021" y="1189.7" as="sourcePoint" />
            <mxPoint x="1371" y="1189.53" as="targetPoint" />
          </mxGeometry>
        </mxCell>
        <mxCell id="85ITMRcIbwLI7j-geZzP-202" value="regfile_wr_data" style="text;html=1;align=center;verticalAlign=middle;resizable=0;points=[];autosize=1;strokeColor=none;fillColor=none;" parent="1" vertex="1">
          <mxGeometry x="1291" y="1159.5" width="110" height="30" as="geometry" />
        </mxCell>
        <mxCell id="85ITMRcIbwLI7j-geZzP-203" value=".result" style="text;html=1;align=center;verticalAlign=middle;resizable=0;points=[];autosize=1;strokeColor=none;fillColor=none;" parent="1" vertex="1">
          <mxGeometry x="1021" y="1160" width="60" height="30" as="geometry" />
        </mxCell>
        <mxCell id="85ITMRcIbwLI7j-geZzP-204" value="" style="endArrow=classic;html=1;rounded=0;entryX=0.167;entryY=0.823;entryDx=0;entryDy=0;entryPerimeter=0;" parent="1" edge="1">
          <mxGeometry width="50" height="50" relative="1" as="geometry">
            <mxPoint x="1250" y="1250" as="sourcePoint" />
            <mxPoint x="1371" y="1250.03" as="targetPoint" />
          </mxGeometry>
        </mxCell>
        <mxCell id="85ITMRcIbwLI7j-geZzP-205" value="regfile_wr_en" style="text;html=1;align=center;verticalAlign=middle;resizable=0;points=[];autosize=1;strokeColor=none;fillColor=none;" parent="1" vertex="1">
          <mxGeometry x="1296" y="1220" width="100" height="30" as="geometry" />
        </mxCell>
        <mxCell id="85ITMRcIbwLI7j-geZzP-206" value=".writeback" style="text;html=1;align=center;verticalAlign=middle;resizable=0;points=[];autosize=1;strokeColor=none;fillColor=none;" parent="1" vertex="1">
          <mxGeometry x="1020" y="1240" width="80" height="30" as="geometry" />
        </mxCell>
        <mxCell id="85ITMRcIbwLI7j-geZzP-207" value="" style="endArrow=none;html=1;rounded=0;entryX=0;entryY=0.75;entryDx=0;entryDy=0;entryPerimeter=0;" parent="1" target="85ITMRcIbwLI7j-geZzP-209" edge="1">
          <mxGeometry width="50" height="50" relative="1" as="geometry">
            <mxPoint x="1020" y="1269.53" as="sourcePoint" />
            <mxPoint x="1170" y="1270" as="targetPoint" />
          </mxGeometry>
        </mxCell>
        <mxCell id="85ITMRcIbwLI7j-geZzP-209" value="" style="shape=or;whiteSpace=wrap;html=1;" parent="1" vertex="1">
          <mxGeometry x="1190" y="1210" width="60" height="80" as="geometry" />
        </mxCell>
        <mxCell id="85ITMRcIbwLI7j-geZzP-210" value="" style="ellipse;whiteSpace=wrap;html=1;aspect=fixed;" parent="1" vertex="1">
          <mxGeometry x="1180" y="1230" width="10" height="10" as="geometry" />
        </mxCell>
        <mxCell id="85ITMRcIbwLI7j-geZzP-211" value="" style="endArrow=none;html=1;rounded=0;entryX=0;entryY=0.75;entryDx=0;entryDy=0;entryPerimeter=0;" parent="1" edge="1">
          <mxGeometry width="50" height="50" relative="1" as="geometry">
            <mxPoint x="1110" y="1235" as="sourcePoint" />
            <mxPoint x="1180" y="1235.24" as="targetPoint" />
          </mxGeometry>
        </mxCell>
        <mxCell id="85ITMRcIbwLI7j-geZzP-212" value="" style="rounded=0;whiteSpace=wrap;html=1;" parent="1" vertex="1">
          <mxGeometry x="1239" y="1310" width="40" height="100" as="geometry" />
        </mxCell>
        <mxCell id="85ITMRcIbwLI7j-geZzP-213" value="" style="triangle;whiteSpace=wrap;html=1;" parent="1" vertex="1">
          <mxGeometry x="1239" y="1370" width="7.5" height="10" as="geometry" />
        </mxCell>
        <mxCell id="85ITMRcIbwLI7j-geZzP-214" value="D" style="text;html=1;align=center;verticalAlign=middle;resizable=0;points=[];autosize=1;strokeColor=none;fillColor=none;" parent="1" vertex="1">
          <mxGeometry x="1229" y="1310" width="30" height="30" as="geometry" />
        </mxCell>
        <mxCell id="85ITMRcIbwLI7j-geZzP-215" value="Q" style="text;html=1;align=center;verticalAlign=middle;resizable=0;points=[];autosize=1;strokeColor=none;fillColor=none;" parent="1" vertex="1">
          <mxGeometry x="1259" y="1310" width="30" height="30" as="geometry" />
        </mxCell>
        <mxCell id="85ITMRcIbwLI7j-geZzP-216" value="" style="endArrow=classic;html=1;rounded=0;entryX=0.167;entryY=0.823;entryDx=0;entryDy=0;entryPerimeter=0;" parent="1" edge="1">
          <mxGeometry width="50" height="50" relative="1" as="geometry">
            <mxPoint x="1279" y="1325" as="sourcePoint" />
            <mxPoint x="1369" y="1324.83" as="targetPoint" />
          </mxGeometry>
        </mxCell>
        <mxCell id="85ITMRcIbwLI7j-geZzP-217" value="ctrl_next_pc" style="text;html=1;align=center;verticalAlign=middle;resizable=0;points=[];autosize=1;strokeColor=none;fillColor=none;" parent="1" vertex="1">
          <mxGeometry x="1289" y="1295" width="90" height="30" as="geometry" />
        </mxCell>
        <mxCell id="85ITMRcIbwLI7j-geZzP-218" value="" style="endArrow=none;html=1;rounded=0;" parent="1" edge="1">
          <mxGeometry width="50" height="50" relative="1" as="geometry">
            <mxPoint x="1020" y="1324.61" as="sourcePoint" />
            <mxPoint x="1239" y="1325" as="targetPoint" />
          </mxGeometry>
        </mxCell>
        <mxCell id="85ITMRcIbwLI7j-geZzP-219" value=".next_pc" style="text;html=1;align=center;verticalAlign=middle;resizable=0;points=[];autosize=1;strokeColor=none;fillColor=none;" parent="1" vertex="1">
          <mxGeometry x="1030" y="1295" width="70" height="30" as="geometry" />
        </mxCell>
        <mxCell id="85ITMRcIbwLI7j-geZzP-220" value="En" style="text;html=1;align=center;verticalAlign=middle;resizable=0;points=[];autosize=1;strokeColor=none;fillColor=none;" parent="1" vertex="1">
          <mxGeometry x="1230" y="1380" width="40" height="30" as="geometry" />
        </mxCell>
        <mxCell id="85ITMRcIbwLI7j-geZzP-222" value="" style="ellipse;whiteSpace=wrap;html=1;aspect=fixed;" parent="1" vertex="1">
          <mxGeometry x="1229" y="1390" width="10" height="10" as="geometry" />
        </mxCell>
        <mxCell id="85ITMRcIbwLI7j-geZzP-223" value="" style="endArrow=none;html=1;rounded=0;entryX=0;entryY=0.75;entryDx=0;entryDy=0;entryPerimeter=0;" parent="1" edge="1">
          <mxGeometry width="50" height="50" relative="1" as="geometry">
            <mxPoint x="1110" y="1395" as="sourcePoint" />
            <mxPoint x="1227.5" y="1395.24" as="targetPoint" />
          </mxGeometry>
        </mxCell>
        <mxCell id="85ITMRcIbwLI7j-geZzP-224" value="+ 1" style="ellipse;whiteSpace=wrap;html=1;aspect=fixed;" parent="1" vertex="1">
          <mxGeometry x="1199" y="263.99999999999994" width="80" height="80" as="geometry" />
        </mxCell>
        <mxCell id="85ITMRcIbwLI7j-geZzP-225" value="En" style="text;html=1;align=center;verticalAlign=middle;resizable=0;points=[];autosize=1;strokeColor=none;fillColor=none;" parent="1" vertex="1">
          <mxGeometry x="1094" y="361" width="40" height="30" as="geometry" />
        </mxCell>
        <mxCell id="85ITMRcIbwLI7j-geZzP-226" value="Clr" style="text;html=1;align=center;verticalAlign=middle;resizable=0;points=[];autosize=1;strokeColor=none;fillColor=none;" parent="1" vertex="1">
          <mxGeometry x="1094" y="381" width="40" height="30" as="geometry" />
        </mxCell>
        <mxCell id="85ITMRcIbwLI7j-geZzP-227" value="" style="endArrow=none;html=1;rounded=0;entryX=0;entryY=0.5;entryDx=0;entryDy=0;" parent="1" edge="1">
          <mxGeometry width="50" height="50" relative="1" as="geometry">
            <mxPoint x="1144" y="303.77" as="sourcePoint" />
            <mxPoint x="1198.999999999994" y="304" as="targetPoint" />
          </mxGeometry>
        </mxCell>
        <mxCell id="85ITMRcIbwLI7j-geZzP-230" value="" style="endArrow=none;html=1;rounded=0;entryX=0;entryY=0.5;entryDx=0;entryDy=0;" parent="1" edge="1">
          <mxGeometry width="50" height="50" relative="1" as="geometry">
            <mxPoint x="1049" y="303.77" as="sourcePoint" />
            <mxPoint x="1104" y="304" as="targetPoint" />
          </mxGeometry>
        </mxCell>
        <mxCell id="85ITMRcIbwLI7j-geZzP-231" value="" style="endArrow=none;html=1;rounded=0;" parent="1" edge="1">
          <mxGeometry width="50" height="50" relative="1" as="geometry">
            <mxPoint x="1050" y="300" as="sourcePoint" />
            <mxPoint x="1049" y="250" as="targetPoint" />
          </mxGeometry>
        </mxCell>
        <mxCell id="85ITMRcIbwLI7j-geZzP-233" value="" style="endArrow=none;html=1;rounded=0;" parent="1" edge="1">
          <mxGeometry width="50" height="50" relative="1" as="geometry">
            <mxPoint x="1049" y="250" as="sourcePoint" />
            <mxPoint x="1239" y="250" as="targetPoint" />
          </mxGeometry>
        </mxCell>
        <mxCell id="85ITMRcIbwLI7j-geZzP-234" value="" style="endArrow=none;html=1;rounded=0;exitX=0.49;exitY=0.043;exitDx=0;exitDy=0;exitPerimeter=0;" parent="1" source="85ITMRcIbwLI7j-geZzP-224" edge="1">
          <mxGeometry width="50" height="50" relative="1" as="geometry">
            <mxPoint x="1240" y="260" as="sourcePoint" />
            <mxPoint x="1239" y="250" as="targetPoint" />
          </mxGeometry>
        </mxCell>
        <mxCell id="85ITMRcIbwLI7j-geZzP-235" value="" style="shape=or;whiteSpace=wrap;html=1;" parent="1" vertex="1">
          <mxGeometry x="1000" y="300" width="60" height="120" as="geometry" />
        </mxCell>
        <mxCell id="85ITMRcIbwLI7j-geZzP-236" value="" style="endArrow=none;html=1;rounded=0;entryX=0;entryY=0.5;entryDx=0;entryDy=0;" parent="1" edge="1">
          <mxGeometry width="50" height="50" relative="1" as="geometry">
            <mxPoint x="970" y="550" as="sourcePoint" />
            <mxPoint x="1111" y="550.23" as="targetPoint" />
          </mxGeometry>
        </mxCell>
        <mxCell id="85ITMRcIbwLI7j-geZzP-237" value="" style="ellipse;whiteSpace=wrap;html=1;aspect=fixed;" parent="1" vertex="1">
          <mxGeometry x="990" y="398" width="10" height="10" as="geometry" />
        </mxCell>
        <mxCell id="85ITMRcIbwLI7j-geZzP-238" value="" style="endArrow=none;html=1;rounded=0;" parent="1" edge="1">
          <mxGeometry width="50" height="50" relative="1" as="geometry">
            <mxPoint x="970" y="550" as="sourcePoint" />
            <mxPoint x="970" y="400" as="targetPoint" />
          </mxGeometry>
        </mxCell>
        <mxCell id="85ITMRcIbwLI7j-geZzP-239" value="" style="endArrow=none;html=1;rounded=0;entryX=0;entryY=0.5;entryDx=0;entryDy=0;" parent="1" edge="1">
          <mxGeometry width="50" height="50" relative="1" as="geometry">
            <mxPoint x="970" y="401" as="sourcePoint" />
            <mxPoint x="990" y="400.77" as="targetPoint" />
          </mxGeometry>
        </mxCell>
        <mxCell id="85ITMRcIbwLI7j-geZzP-240" value="" style="endArrow=none;html=1;rounded=0;entryX=0;entryY=0.442;entryDx=0;entryDy=0;entryPerimeter=0;" parent="1" target="85ITMRcIbwLI7j-geZzP-235" edge="1">
          <mxGeometry width="50" height="50" relative="1" as="geometry">
            <mxPoint x="950" y="353" as="sourcePoint" />
            <mxPoint x="975" y="353" as="targetPoint" />
          </mxGeometry>
        </mxCell>
        <mxCell id="85ITMRcIbwLI7j-geZzP-242" value="" style="endArrow=none;html=1;rounded=0;" parent="1" edge="1">
          <mxGeometry width="50" height="50" relative="1" as="geometry">
            <mxPoint x="1160" y="303" as="sourcePoint" />
            <mxPoint x="1160" y="211" as="targetPoint" />
          </mxGeometry>
        </mxCell>
        <mxCell id="85ITMRcIbwLI7j-geZzP-243" value="" style="endArrow=none;html=1;rounded=0;" parent="1" edge="1">
          <mxGeometry width="50" height="50" relative="1" as="geometry">
            <mxPoint x="700" y="210" as="sourcePoint" />
            <mxPoint x="1160" y="210" as="targetPoint" />
          </mxGeometry>
        </mxCell>
        <mxCell id="85ITMRcIbwLI7j-geZzP-244" value="" style="endArrow=none;html=1;rounded=0;exitX=0.971;exitY=0.558;exitDx=0;exitDy=0;exitPerimeter=0;" parent="1" edge="1">
          <mxGeometry width="50" height="50" relative="1" as="geometry">
            <mxPoint x="1058.26" y="377.7700000000001" as="sourcePoint" />
            <mxPoint x="1104" y="378.0448148148149" as="targetPoint" />
          </mxGeometry>
        </mxCell>
        <mxCell id="85ITMRcIbwLI7j-geZzP-245" value="" style="shape=or;whiteSpace=wrap;html=1;direction=west;" parent="1" vertex="1">
          <mxGeometry x="1134" y="430" width="60" height="80" as="geometry" />
        </mxCell>
        <mxCell id="85ITMRcIbwLI7j-geZzP-246" value="" style="ellipse;whiteSpace=wrap;html=1;aspect=fixed;direction=west;" parent="1" vertex="1">
          <mxGeometry x="1194" y="445" width="10" height="10" as="geometry" />
        </mxCell>
        <mxCell id="85ITMRcIbwLI7j-geZzP-250" value="" style="endArrow=none;html=1;rounded=0;" parent="1" edge="1">
          <mxGeometry width="50" height="50" relative="1" as="geometry">
            <mxPoint x="1111" y="470" as="sourcePoint" />
            <mxPoint x="1110.77" y="411" as="targetPoint" />
          </mxGeometry>
        </mxCell>
        <mxCell id="85ITMRcIbwLI7j-geZzP-251" value="" style="endArrow=none;html=1;rounded=0;entryX=0;entryY=0.5;entryDx=0;entryDy=0;" parent="1" edge="1">
          <mxGeometry width="50" height="50" relative="1" as="geometry">
            <mxPoint x="1110" y="470" as="sourcePoint" />
            <mxPoint x="1134" y="470" as="targetPoint" />
          </mxGeometry>
        </mxCell>
        <mxCell id="85ITMRcIbwLI7j-geZzP-255" value="" style="rounded=0;whiteSpace=wrap;html=1;" parent="1" vertex="1">
          <mxGeometry x="1259" y="435" width="40" height="100" as="geometry" />
        </mxCell>
        <mxCell id="85ITMRcIbwLI7j-geZzP-256" value="" style="triangle;whiteSpace=wrap;html=1;" parent="1" vertex="1">
          <mxGeometry x="1259" y="495" width="7.5" height="10" as="geometry" />
        </mxCell>
        <mxCell id="85ITMRcIbwLI7j-geZzP-257" value="D" style="text;html=1;align=center;verticalAlign=middle;resizable=0;points=[];autosize=1;strokeColor=none;fillColor=none;" parent="1" vertex="1">
          <mxGeometry x="1250" y="435" width="30" height="30" as="geometry" />
        </mxCell>
        <mxCell id="85ITMRcIbwLI7j-geZzP-258" value="Q" style="text;html=1;align=center;verticalAlign=middle;resizable=0;points=[];autosize=1;strokeColor=none;fillColor=none;" parent="1" vertex="1">
          <mxGeometry x="1279" y="435" width="30" height="30" as="geometry" />
        </mxCell>
        <mxCell id="85ITMRcIbwLI7j-geZzP-259" value="" style="endArrow=none;html=1;rounded=0;" parent="1" edge="1">
          <mxGeometry width="50" height="50" relative="1" as="geometry">
            <mxPoint x="1203" y="449.53" as="sourcePoint" />
            <mxPoint x="1258" y="450" as="targetPoint" />
          </mxGeometry>
        </mxCell>
        <mxCell id="85ITMRcIbwLI7j-geZzP-261" value="" style="endArrow=classic;html=1;rounded=0;" parent="1" edge="1">
          <mxGeometry width="50" height="50" relative="1" as="geometry">
            <mxPoint x="1300" y="449.53" as="sourcePoint" />
            <mxPoint x="1400" y="450" as="targetPoint" />
          </mxGeometry>
        </mxCell>
        <mxCell id="85ITMRcIbwLI7j-geZzP-262" value="" style="endArrow=none;html=1;rounded=0;" parent="1" edge="1">
          <mxGeometry width="50" height="50" relative="1" as="geometry">
            <mxPoint x="1195" y="499.53" as="sourcePoint" />
            <mxPoint x="1230" y="500" as="targetPoint" />
          </mxGeometry>
        </mxCell>
        <mxCell id="85ITMRcIbwLI7j-geZzP-264" value="" style="endArrow=none;html=1;rounded=0;" parent="1" edge="1">
          <mxGeometry width="50" height="50" relative="1" as="geometry">
            <mxPoint x="1330" y="560" as="sourcePoint" />
            <mxPoint x="1330" y="451" as="targetPoint" />
          </mxGeometry>
        </mxCell>
        <mxCell id="85ITMRcIbwLI7j-geZzP-265" value="" style="endArrow=none;html=1;rounded=0;" parent="1" edge="1">
          <mxGeometry width="50" height="50" relative="1" as="geometry">
            <mxPoint x="1228.76" y="559" as="sourcePoint" />
            <mxPoint x="1228.53" y="500" as="targetPoint" />
          </mxGeometry>
        </mxCell>
        <mxCell id="85ITMRcIbwLI7j-geZzP-266" value="" style="endArrow=none;html=1;rounded=0;" parent="1" edge="1">
          <mxGeometry width="50" height="50" relative="1" as="geometry">
            <mxPoint x="1229" y="560" as="sourcePoint" />
            <mxPoint x="1330" y="560" as="targetPoint" />
          </mxGeometry>
        </mxCell>
        <mxCell id="85ITMRcIbwLI7j-geZzP-267" value="flush_ack" style="text;html=1;align=center;verticalAlign=middle;resizable=0;points=[];autosize=1;strokeColor=none;fillColor=none;" parent="1" vertex="1">
          <mxGeometry x="1321" y="420" width="80" height="30" as="geometry" />
        </mxCell>
        <mxCell id="85ITMRcIbwLI7j-geZzP-268" value="flush_req" style="text;html=1;align=center;verticalAlign=middle;resizable=0;points=[];autosize=1;strokeColor=none;fillColor=none;" parent="1" vertex="1">
          <mxGeometry x="1220" y="378" width="80" height="30" as="geometry" />
        </mxCell>
        <mxCell id="85ITMRcIbwLI7j-geZzP-269" value="" style="endArrow=classic;html=1;rounded=0;" parent="1" edge="1">
          <mxGeometry width="50" height="50" relative="1" as="geometry">
            <mxPoint x="1230" y="370" as="sourcePoint" />
            <mxPoint x="1230" y="428" as="targetPoint" />
          </mxGeometry>
        </mxCell>
        <mxCell id="85ITMRcIbwLI7j-geZzP-270" value="" style="endArrow=none;html=1;rounded=0;" parent="1" edge="1">
          <mxGeometry width="50" height="50" relative="1" as="geometry">
            <mxPoint x="1230" y="450" as="sourcePoint" />
            <mxPoint x="1229.53" y="420.5" as="targetPoint" />
          </mxGeometry>
        </mxCell>
        <mxCell id="85ITMRcIbwLI7j-geZzP-272" value="" style="ellipse;whiteSpace=wrap;html=1;aspect=fixed;" parent="1" vertex="1">
          <mxGeometry x="990" y="309" width="10" height="10" as="geometry" />
        </mxCell>
        <mxCell id="85ITMRcIbwLI7j-geZzP-274" value="" style="endArrow=none;html=1;rounded=0;" parent="1" edge="1">
          <mxGeometry width="50" height="50" relative="1" as="geometry">
            <mxPoint x="970" y="314" as="sourcePoint" />
            <mxPoint x="970" y="160" as="targetPoint" />
          </mxGeometry>
        </mxCell>
        <mxCell id="85ITMRcIbwLI7j-geZzP-275" value="" style="endArrow=none;html=1;rounded=0;entryX=0;entryY=0.5;entryDx=0;entryDy=0;" parent="1" edge="1">
          <mxGeometry width="50" height="50" relative="1" as="geometry">
            <mxPoint x="970" y="314" as="sourcePoint" />
            <mxPoint x="990" y="313.77" as="targetPoint" />
          </mxGeometry>
        </mxCell>
        <mxCell id="85ITMRcIbwLI7j-geZzP-276" value="" style="endArrow=classic;html=1;rounded=0;exitX=0.173;exitY=1.016;exitDx=0;exitDy=0;exitPerimeter=0;" parent="1" source="85ITMRcIbwLI7j-geZzP-277" edge="1">
          <mxGeometry width="50" height="50" relative="1" as="geometry">
            <mxPoint x="890" y="160" as="sourcePoint" />
            <mxPoint x="970" y="160" as="targetPoint" />
          </mxGeometry>
        </mxCell>
        <mxCell id="85ITMRcIbwLI7j-geZzP-277" value="ctrl_begin_irq" style="text;html=1;align=center;verticalAlign=middle;resizable=0;points=[];autosize=1;strokeColor=none;fillColor=none;" parent="1" vertex="1">
          <mxGeometry x="860" y="130" width="100" height="30" as="geometry" />
        </mxCell>
        <mxCell id="85ITMRcIbwLI7j-geZzP-278" value="" style="endArrow=none;html=1;rounded=0;" parent="1" edge="1">
          <mxGeometry width="50" height="50" relative="1" as="geometry">
            <mxPoint x="960" y="354" as="sourcePoint" />
            <mxPoint x="960" y="195" as="targetPoint" />
          </mxGeometry>
        </mxCell>
        <mxCell id="85ITMRcIbwLI7j-geZzP-283" value="" style="endArrow=classic;html=1;rounded=0;entryX=0.125;entryY=0.979;entryDx=0;entryDy=0;entryPerimeter=0;" parent="1" target="85ITMRcIbwLI7j-geZzP-284" edge="1">
          <mxGeometry width="50" height="50" relative="1" as="geometry">
            <mxPoint x="960" y="195" as="sourcePoint" />
            <mxPoint x="880" y="195" as="targetPoint" />
          </mxGeometry>
        </mxCell>
        <mxCell id="85ITMRcIbwLI7j-geZzP-284" value="ctrl_commit" style="text;html=1;align=center;verticalAlign=middle;resizable=0;points=[];autosize=1;strokeColor=none;fillColor=none;" parent="1" vertex="1">
          <mxGeometry x="854" y="166" width="90" height="30" as="geometry" />
        </mxCell>
        <mxCell id="85ITMRcIbwLI7j-geZzP-290" value="" style="endArrow=classic;html=1;rounded=0;entryX=0.167;entryY=0.823;entryDx=0;entryDy=0;entryPerimeter=0;" parent="1" edge="1">
          <mxGeometry width="50" height="50" relative="1" as="geometry">
            <mxPoint x="1285" y="1479.5" as="sourcePoint" />
            <mxPoint x="1375" y="1479.33" as="targetPoint" />
          </mxGeometry>
        </mxCell>
        <mxCell id="85ITMRcIbwLI7j-geZzP-291" value="issue_commit_mask" style="text;html=1;align=center;verticalAlign=middle;resizable=0;points=[];autosize=1;strokeColor=none;fillColor=none;" parent="1" vertex="1">
          <mxGeometry x="1281" y="1449.8" width="140" height="30" as="geometry" />
        </mxCell>
        <mxCell id="85ITMRcIbwLI7j-geZzP-292" value="" style="endArrow=none;html=1;rounded=0;" parent="1" edge="1">
          <mxGeometry width="50" height="50" relative="1" as="geometry">
            <mxPoint x="1020" y="1510" as="sourcePoint" />
            <mxPoint x="1229" y="1510.19" as="targetPoint" />
          </mxGeometry>
        </mxCell>
        <mxCell id="85ITMRcIbwLI7j-geZzP-293" value=".rd_mask" style="text;html=1;align=center;verticalAlign=middle;resizable=0;points=[];autosize=1;strokeColor=none;fillColor=none;" parent="1" vertex="1">
          <mxGeometry x="1014" y="1479.8" width="80" height="30" as="geometry" />
        </mxCell>
        <mxCell id="85ITMRcIbwLI7j-geZzP-298" value="" style="shape=trapezoid;perimeter=trapezoidPerimeter;whiteSpace=wrap;html=1;fixedSize=1;direction=south;" parent="1" vertex="1">
          <mxGeometry x="1229" y="1420" width="60" height="120" as="geometry" />
        </mxCell>
        <mxCell id="85ITMRcIbwLI7j-geZzP-300" value="" style="endArrow=none;html=1;rounded=0;entryX=0;entryY=0.75;entryDx=0;entryDy=0;entryPerimeter=0;" parent="1" edge="1">
          <mxGeometry width="50" height="50" relative="1" as="geometry">
            <mxPoint x="1190" y="1440" as="sourcePoint" />
            <mxPoint x="1230" y="1440.24" as="targetPoint" />
          </mxGeometry>
        </mxCell>
        <mxCell id="85ITMRcIbwLI7j-geZzP-301" value="&#39;0" style="text;html=1;align=center;verticalAlign=middle;resizable=0;points=[];autosize=1;strokeColor=none;fillColor=none;" parent="1" vertex="1">
          <mxGeometry x="1164" y="1419.8" width="30" height="30" as="geometry" />
        </mxCell>
        <mxCell id="85ITMRcIbwLI7j-geZzP-302" value="" style="endArrow=none;html=1;rounded=0;" parent="1" edge="1">
          <mxGeometry width="50" height="50" relative="1" as="geometry">
            <mxPoint x="1111" y="1560" as="sourcePoint" />
            <mxPoint x="1260" y="1560" as="targetPoint" />
          </mxGeometry>
        </mxCell>
        <mxCell id="85ITMRcIbwLI7j-geZzP-303" value="" style="endArrow=none;html=1;rounded=0;" parent="1" edge="1">
          <mxGeometry width="50" height="50" relative="1" as="geometry">
            <mxPoint x="1260" y="1560" as="sourcePoint" />
            <mxPoint x="1260" y="1530" as="targetPoint" />
          </mxGeometry>
        </mxCell>
      </root>
    </mxGraphModel>
  </diagram>
</mxfile>
